<svg xmlns="http://www.w3.org/2000/svg" width="128" height="128" viewBox="0 22 128 106" role="img" aria-labelledby="folders-title">
  <title id="folders-title">Folders</title>
  <defs>
    <linearGradient id="folders-body-gradient" x1="24" y1="43" x2="109" y2="111" gradientUnits="userSpaceOnUse">
      <stop offset="0" stop-color="#E9C76D"/>
      <stop offset="1" stop-color="#D9B257"/>
    </linearGradient>
    <linearGradient id="folders-tab-gradient" x1="23" y1="25" x2="74" y2="62" gradientUnits="userSpaceOnUse">
      <stop offset="0" stop-color="#F2D783"/>
      <stop offset="1" stop-color="#E3BB55"/>
    </linearGradient>
  </defs>
  <path d="M18 41c0-7.2 5.8-13 13-13h24.5c4.2 0 8.2 2 10.6 5.4l7.4 10.1H103c7.2 0 13 5.8 13 13v52c0 7.2-5.8 13-13 13H31c-7.2 0-13-5.8-13-13V41Z" fill="url(#folders-body-gradient)"/>
  <path d="M18 41c0-7.2 5.8-13 13-13h24.5c4.2 0 8.2 2 10.6 5.4l7.4 10.1H18V41Z" fill="url(#folders-tab-gradient)"/>
  <path d="M33 71h62" stroke="#B99D56" stroke-width="8" stroke-linecap="round" opacity=".38"/>
</svg>
